<?xml version="1.0" encoding="UTF-8" standalone="no"?>
<!DOCTYPE svg PUBLIC "-//W3C//DTD SVG 1.1//EN"
 "http://www.w3.org/Graphics/SVG/1.1/DTD/svg11.dtd">
<!-- Generated by graphviz version 2.38.0 (20140413.2041)
 -->
<!-- Title: Mutual.cpp Pages: 1 -->
<svg width="349pt" height="140pt"
 viewBox="0.00 0.00 348.50 140.00" xmlns="http://www.w3.org/2000/svg" xmlns:xlink="http://www.w3.org/1999/xlink">
<g id="graph0" class="graph" transform="scale(1 1) rotate(0) translate(4 136)">
<title>Mutual.cpp</title>
<polygon fill="white" stroke="none" points="-4,4 -4,-136 344.5,-136 344.5,4 -4,4"/>
<!-- Node1 -->
<g id="node1" class="node"><title>Node1</title>
<polygon fill="#bfbfbf" stroke="black" points="192.5,-112.5 192.5,-131.5 257.5,-131.5 257.5,-112.5 192.5,-112.5"/>
<text text-anchor="middle" x="225" y="-119.5" font-family="Helvetica,sans-Serif" font-size="10.00">Mutual.cpp</text>
</g>
<!-- Node2 -->
<g id="node2" class="node"><title>Node2</title>
<g id="a_node2"><a xlink:href="_semaphore_8h.html" target="_top" xlink:title="Semaphore.h">
<polygon fill="white" stroke="black" points="73,-56.5 73,-75.5 147,-75.5 147,-56.5 73,-56.5"/>
<text text-anchor="middle" x="110" y="-63.5" font-family="Helvetica,sans-Serif" font-size="10.00">Semaphore.h</text>
</a>
</g>
</g>
<!-- Node1&#45;&gt;Node2 -->
<g id="edge1" class="edge"><title>Node1&#45;&gt;Node2</title>
<path fill="none" stroke="midnightblue" d="M206.778,-112.444C188.104,-103.675 158.844,-89.9355 137.383,-79.8579"/>
<polygon fill="midnightblue" stroke="midnightblue" points="138.676,-76.5988 128.137,-75.5164 135.701,-82.935 138.676,-76.5988"/>
</g>
<!-- Node6 -->
<g id="node6" class="node"><title>Node6</title>
<polygon fill="white" stroke="#bfbfbf" points="165,-56.5 165,-75.5 219,-75.5 219,-56.5 165,-56.5"/>
<text text-anchor="middle" x="192" y="-63.5" font-family="Helvetica,sans-Serif" font-size="10.00">iostream</text>
</g>
<!-- Node1&#45;&gt;Node6 -->
<g id="edge5" class="edge"><title>Node1&#45;&gt;Node6</title>
<path fill="none" stroke="midnightblue" d="M219.551,-112.083C214.986,-104.613 208.332,-93.7244 202.707,-84.5199"/>
<polygon fill="midnightblue" stroke="midnightblue" points="205.549,-82.4588 197.348,-75.7511 199.576,-86.109 205.549,-82.4588"/>
</g>
<!-- Node7 -->
<g id="node7" class="node"><title>Node7</title>
<polygon fill="white" stroke="#bfbfbf" points="237,-56.5 237,-75.5 281,-75.5 281,-56.5 237,-56.5"/>
<text text-anchor="middle" x="259" y="-63.5" font-family="Helvetica,sans-Serif" font-size="10.00">thread</text>
</g>
<!-- Node1&#45;&gt;Node7 -->
<g id="edge6" class="edge"><title>Node1&#45;&gt;Node7</title>
<path fill="none" stroke="midnightblue" d="M230.614,-112.083C235.367,-104.534 242.318,-93.4948 248.152,-84.2298"/>
<polygon fill="midnightblue" stroke="midnightblue" points="251.124,-86.0783 253.49,-75.7511 245.2,-82.3486 251.124,-86.0783"/>
</g>
<!-- Node8 -->
<g id="node8" class="node"><title>Node8</title>
<polygon fill="white" stroke="#bfbfbf" points="299.5,-56.5 299.5,-75.5 340.5,-75.5 340.5,-56.5 299.5,-56.5"/>
<text text-anchor="middle" x="320" y="-63.5" font-family="Helvetica,sans-Serif" font-size="10.00">string</text>
</g>
<!-- Node1&#45;&gt;Node8 -->
<g id="edge7" class="edge"><title>Node1&#45;&gt;Node8</title>
<path fill="none" stroke="midnightblue" d="M240.263,-112.324C255.221,-103.822 278.255,-90.7288 295.727,-80.7975"/>
<polygon fill="midnightblue" stroke="midnightblue" points="297.81,-83.639 304.774,-75.6545 294.351,-77.5534 297.81,-83.639"/>
</g>
<!-- Node3 -->
<g id="node3" class="node"><title>Node3</title>
<polygon fill="white" stroke="#bfbfbf" points="0,-0.5 0,-19.5 44,-19.5 44,-0.5 0,-0.5"/>
<text text-anchor="middle" x="22" y="-7.5" font-family="Helvetica,sans-Serif" font-size="10.00">mutex</text>
</g>
<!-- Node2&#45;&gt;Node3 -->
<g id="edge2" class="edge"><title>Node2&#45;&gt;Node3</title>
<path fill="none" stroke="midnightblue" d="M95.8613,-56.324C82.1337,-47.9002 61.0637,-34.9709 44.9357,-25.0741"/>
<polygon fill="midnightblue" stroke="midnightblue" points="46.4574,-21.9016 36.1036,-19.6545 42.7963,-27.8678 46.4574,-21.9016"/>
</g>
<!-- Node4 -->
<g id="node4" class="node"><title>Node4</title>
<polygon fill="white" stroke="#bfbfbf" points="62.5,-0.5 62.5,-19.5 157.5,-19.5 157.5,-0.5 62.5,-0.5"/>
<text text-anchor="middle" x="110" y="-7.5" font-family="Helvetica,sans-Serif" font-size="10.00">condition_variable</text>
</g>
<!-- Node2&#45;&gt;Node4 -->
<g id="edge3" class="edge"><title>Node2&#45;&gt;Node4</title>
<path fill="none" stroke="midnightblue" d="M110,-56.083C110,-49.0059 110,-38.8611 110,-29.9865"/>
<polygon fill="midnightblue" stroke="midnightblue" points="113.5,-29.751 110,-19.7511 106.5,-29.7511 113.5,-29.751"/>
</g>
<!-- Node5 -->
<g id="node5" class="node"><title>Node5</title>
<polygon fill="white" stroke="#bfbfbf" points="176,-0.5 176,-19.5 222,-19.5 222,-0.5 176,-0.5"/>
<text text-anchor="middle" x="199" y="-7.5" font-family="Helvetica,sans-Serif" font-size="10.00">chrono</text>
</g>
<!-- Node2&#45;&gt;Node5 -->
<g id="edge4" class="edge"><title>Node2&#45;&gt;Node5</title>
<path fill="none" stroke="midnightblue" d="M124.299,-56.324C138.183,-47.9002 159.492,-34.9709 175.804,-25.0741"/>
<polygon fill="midnightblue" stroke="midnightblue" points="178.002,-27.8341 184.736,-19.6545 174.371,-21.8495 178.002,-27.8341"/>
</g>
</g>
</svg>
