<?xml version="1.0" encoding="UTF-8" standalone="no"?>
<!DOCTYPE svg PUBLIC "-//W3C//DTD SVG 1.1//EN"
 "http://www.w3.org/Graphics/SVG/1.1/DTD/svg11.dtd">
<!-- Generated by graphviz version 2.38.0 (20140413.2041)
 -->
<!-- Title: Semaphore.h Pages: 1 -->
<svg width="202pt" height="84pt"
 viewBox="0.00 0.00 201.50 84.00" xmlns="http://www.w3.org/2000/svg" xmlns:xlink="http://www.w3.org/1999/xlink">
<g id="graph0" class="graph" transform="scale(1 1) rotate(0) translate(4 80)">
<title>Semaphore.h</title>
<polygon fill="white" stroke="none" points="-4,4 -4,-80 197.5,-80 197.5,4 -4,4"/>
<!-- Node1 -->
<g id="node1" class="node"><title>Node1</title>
<polygon fill="#bfbfbf" stroke="black" points="61,-56.5 61,-75.5 135,-75.5 135,-56.5 61,-56.5"/>
<text text-anchor="middle" x="98" y="-63.5" font-family="Helvetica,sans-Serif" font-size="10.00">Semaphore.h</text>
</g>
<!-- Node2 -->
<g id="node2" class="node"><title>Node2</title>
<g id="a_node2"><a xlink:href="_rendezvous_8cpp.html" target="_top" xlink:title="Rendezvous.cpp">
<polygon fill="white" stroke="black" points="0,-0.5 0,-19.5 90,-19.5 90,-0.5 0,-0.5"/>
<text text-anchor="middle" x="45" y="-7.5" font-family="Helvetica,sans-Serif" font-size="10.00">Rendezvous.cpp</text>
</a>
</g>
</g>
<!-- Node1&#45;&gt;Node2 -->
<g id="edge1" class="edge"><title>Node1&#45;&gt;Node2</title>
<path fill="none" stroke="midnightblue" d="M82.0191,-48.7175C72.6775,-39.1997 61.2541,-27.5608 53.589,-19.7511"/>
<polygon fill="midnightblue" stroke="midnightblue" points="79.7455,-51.3978 89.2481,-56.083 84.7413,-46.4945 79.7455,-51.3978"/>
</g>
<!-- Node3 -->
<g id="node3" class="node"><title>Node3</title>
<g id="a_node3"><a xlink:href="_semaphore_8cpp.html" target="_top" xlink:title="Semaphore.cpp">
<polygon fill="white" stroke="black" points="108.5,-0.5 108.5,-19.5 193.5,-19.5 193.5,-0.5 108.5,-0.5"/>
<text text-anchor="middle" x="151" y="-7.5" font-family="Helvetica,sans-Serif" font-size="10.00">Semaphore.cpp</text>
</a>
</g>
</g>
<!-- Node1&#45;&gt;Node3 -->
<g id="edge2" class="edge"><title>Node1&#45;&gt;Node3</title>
<path fill="none" stroke="midnightblue" d="M113.981,-48.7175C123.322,-39.1997 134.746,-27.5608 142.411,-19.7511"/>
<polygon fill="midnightblue" stroke="midnightblue" points="111.259,-46.4945 106.752,-56.083 116.254,-51.3978 111.259,-46.4945"/>
</g>
</g>
</svg>
